<svg id="Capa_1" data-name="Capa 1" xmlns="http://www.w3.org/2000/svg" viewBox="0 0 182.14 235.9"><defs><style>.cls-1{stroke:#04ff12;stroke-miterlimit:10;}</style></defs><title>menu1SVG</title><path class="cls-1" d="M174.27,242c.13-13.91.31-27.81.33-41.72,0-2-1-4.05-1.12-6.09-.29-9.09-.53-18.2-.56-27.3,0-6.64,0-13.31.58-19.92a166.51,166.51,0,0,1,2.94-22.2,108.05,108.05,0,0,1,6.31-18.65c2.22-5.25,4.5-10.6,8.47-14.93a12.57,12.57,0,0,0,1.24-2.3c-1.44,0-2.55-.08-3.64,0-5.69.48-11.43.73-17.07,1.56-7.77,1.14-15.48,2.75-23.22,4.12-1.79.32-3.61.86-5.23-.73-1-1-1.07-1.72.12-2.35A14.49,14.49,0,0,1,147,90.07c16.24-3.58,32.73-5.31,49.3-6.46a30.46,30.46,0,0,0,5.87-1.21c1.73-.48,2.8-4.7,1.63-6.13A5.2,5.2,0,0,0,202.45,75c-3.73-2.14-7.46-4.31-11.26-6.34-2.07-1.11-3.37-.6-4.62,1.44-.65,1.05-1.25,2.13-2,3.12-1.09,1.48-3.78,2.15-4.72,1.07-1.33-1.55-.71-3,.81-4.12a5,5,0,0,0,.8-1.13c2.36-3.34,2.34-3.81-1.86-4.44a52.31,52.31,0,0,0-11.92-.51c-5.81.47-11.57,1.57-17.36,2.42a13.69,13.69,0,0,0-1.66.5c2.82,2.2,5.29,4.21,7.86,6.09,1.2.87,2.44,1.66,1.42,3.29s-2.46,1.32-3.68.48c-3.4-2.35-6.65-4.94-10.1-7.22a5,5,0,0,0-3.72-.77c-8.24,2.81-16.41,5.81-24.57,8.83A38.36,38.36,0,0,0,111.37,80c-1.28.68-1.77,1.64-1,3q2.84,5.1,5.65,10.22a25.81,25.81,0,0,0,1.84,3.2,26.6,26.6,0,0,0,2.39,2.22c1.27,1.27,2.83,2.39,3.66,3.91,1.28,2.32,3.16,4.17,3.65,7.21.4,2.44,3,4.66,5,6.66,2.35,2.38,2.43,4.18-.27,6.15-3.65,2.68-7.38,1.61-9-2.6-.6-1.56-1.17-3.13-1.89-5.06a13.11,13.11,0,0,0-2.49,2.34c-2.54,4.1-4.86,8.34-7.42,12.44-3,4.86-6.09,9.7-9.36,14.4-2.82,4.06-5.86,8-9,11.83-2.42,3-5.19,5.62-7.69,8.52-3.15,3.64-6,7.53-9.31,11.06a104.48,104.48,0,0,1-9.22,8.63,2.64,2.64,0,0,1-4.1-.49c-1-1.46.17-2.4,1.18-3.3a64.72,64.72,0,0,0,5.72-5.24c5.06-5.75,9.92-11.68,14.94-17.47,3.65-4.21,7.53-8.21,11.11-12.48A66.54,66.54,0,0,0,100.7,138q4.53-7.15,8.94-14.4c1.52-2.47,2.92-5,4.44-7.5.79-1.28,1.74-2.46,2.76-3.9-3.41-1.59-4.2-4.38-3.79-7.73a1.91,1.91,0,0,0-.36-1.29q-5.13-6.34-10.34-12.63c-.95-1.15-1.87-2.9-3-3.13-1-.18-2.37,1.37-3.48,2.28a26.45,26.45,0,0,0-4.2,3.83Q85.74,101,80.15,108.7c-3.87,5.34-7.6,10.78-11.31,16.22-2.07,3-4.17,6.09-5.92,9.31-2.43,4.48-4.64,9.09-6.78,13.72-4.1,8.89-5.92,18.41-7.77,27.94-1.32,6.78-3.25,13.44-4.58,20.22-1,5.06-1.27,10.28-2.26,15.34C40.48,216.8,39,222,37.66,227.34c-.76,3.07-1.42,6.17-2.22,9.23-.49,1.83-1.16,3.62-1.75,5.43h-5.1c.95-3.07,2-6.11,2.81-9.21.88-3.36,1.58-6.77,2.26-10.17,1.09-5.51,2.1-11,3.14-16.55q1.68-8.85,3.38-17.68c1.4-7.26,2.56-14.58,4.34-21.74,1.46-5.87,3.75-11.53,5.52-17.33a65.87,65.87,0,0,1,8.65-17.71c4.08-6,7.84-12.25,11.89-18.29,3.41-5.08,6.76-10.26,10.65-15,4.49-5.45,9.53-10.45,14.55-15.87C93.6,79.76,91,76.59,88.5,73.36s-5.07-6.73-7.67-10c-4.14-5.3-8.4-10.51-12.5-15.84s-8.14-10.53-11.9-16A88.9,88.9,0,0,1,49.86,20c-1.71-3.5-.48-9.18,1.93-11.18a6.88,6.88,0,0,1,7.59-1,25.16,25.16,0,0,1,11.36,9.41c3.69,5.54,7.77,10.83,11.57,16.29,1.23,1.75,2.09,3.75,3.18,5.6Q90,46.83,94.61,54.54c2.77,4.66,5.59,9.29,8.31,14a63.5,63.5,0,0,1,3.24,6.37c.69,1.59,1.48,1.81,3,1.14,6.07-2.61,12.18-5.13,18.31-7.61,2.77-1.12,5.63-2,8.45-3.08.26-.09.47-.33.14-.09-.08-1.88-.74-3.87-.08-4.54,1.33-1.32,3.27-.53,4.61.6a5.28,5.28,0,0,0,5.5,1.17c9.64-2.89,19.6-3.18,29.56-3.09,3.41,0,6.82.79,10.23,1.21l.11.76a9.7,9.7,0,0,1,2-2.07,15,15,0,0,1,3.26-1c.27,1,1,2.16.71,3-.56,1.86-.14,2.64,1.61,3.57,4.61,2.44,9,5.24,13.55,7.85a4.72,4.72,0,0,1,2.37,4.47c0,1.45-.21,2.91-.34,4.37-.26,3.12-2.21,4.59-5.08,5.09A11.77,11.77,0,0,0,196.41,92c-1.81,2.64-3.16,5.61-5,8.21-3.51,4.85-4.89,10.53-6.67,16.06-1.65,5.11-3.41,10.2-4.72,15.4a41.37,41.37,0,0,0-1.05,9.43c-.25,16.46-1.26,33-.26,49.36.94,15.35.48,30.63.61,45.95,0,1.85.05,3.71.08,5.56Z" transform="translate(-27.91 -6.6)"/><path d="M149.26,80.77c-2.45,0-3.86-1.16-3.86-2.72s1.4-2.73,3.55-2.72c1.9,0,2.84.92,2.8,2.81S150.56,80.83,149.26,80.77Z" transform="translate(-27.91 -6.6)"/><path d="M191.43,71.44c1.77,0,3.63,1.45,3.38,2.77-.34,1.83-1.78,2.36-3.44,2.42s-2.86-.71-3-2.46C188.18,72.72,189.75,71.42,191.43,71.44Z" transform="translate(-27.91 -6.6)"/></svg>