<svg id="Capa_1" data-name="Capa 1" xmlns="http://www.w3.org/2000/svg" viewBox="0 0 56.23 47.11"><defs><style>.cls-1{fill:#906;}.cls-2{fill:blue;}</style></defs><title>menu3SVG</title><path class="cls-1" d="M123.58,133.12c-5,0-10.09.09-15.13,0-7.15-.15-11.89-3.94-12.6-9.86-.69-5.74,2.86-10,9.73-12a6.7,6.7,0,0,0,3.35-2.55c6.75-10.09,23-10.1,29.76-.07a8.05,8.05,0,0,0,4.17,2.75c6,1.69,9.61,6.14,9.09,11.65s-5.1,9.79-11.51,10c-5.61.19-11.24,0-16.86,0Zm.29-2.12v0c5.34,0,10.69.18,16-.06,5.76-.25,9.6-3.72,9.84-8.37s-3.27-8.07-9-9.23a5.51,5.51,0,0,1-3.42-2.29c-2.82-5.38-7.57-7.65-13.65-7.62s-10.5,2.37-13.3,7.51a5.48,5.48,0,0,1-3.31,2.4c-5.82,1.22-9.22,4.54-9,9.2.23,4.81,4.2,8.24,10.22,8.46C113.48,131.16,118.68,131,123.87,131Z" transform="translate(-95.77 -101.13)"/><path class="cls-2" d="M129.36,148.19v-6.76h1.09v6.73Z" transform="translate(-95.77 -101.13)"/><path class="cls-2" d="M105.57,143v-6.63l1.31-.07.34,6.73Z" transform="translate(-95.77 -101.13)"/><path class="cls-2" d="M138.26,136.21v6.87h-1.1V136.3Z" transform="translate(-95.77 -101.13)"/><path class="cls-2" d="M113.58,148.11v-6.78h1.11v6.9Z" transform="translate(-95.77 -101.13)"/></svg>